<?xml version="1.0" standalone="no"?>
<!DOCTYPE svg PUBLIC "-//W3C//DTD SVG 20010904//EN"
 "http://www.w3.org/TR/2001/REC-SVG-20010904/DTD/svg10.dtd">
<svg version="1.0" xmlns="http://www.w3.org/2000/svg"
 width="340.000000pt" height="150.000000pt" viewBox="0 0 340.000000 150.000000"
 preserveAspectRatio="xMidYMid meet">

<g transform="translate(0.000000,150.000000) scale(0.100000,-0.100000)"
fill="#000000" stroke="none">
<path d="M496 995 c-126 -52 -263 -172 -315 -277 -34 -67 -39 -114 -17 -156
38 -73 105 -86 194 -37 57 31 132 105 132 130 0 20 -6 19 -41 -6 -39 -28 -134
-65 -188 -74 l-44 -7 7 33 c10 50 72 135 141 191 56 46 263 158 292 158 20 0
15 25 -10 48 -31 29 -76 28 -151 -3z"/>
<path d="M1315 863 c-58 -79 -61 -83 -97 -83 -32 0 -34 -6 -11 -32 15 -17 14
-21 -22 -74 -40 -57 -100 -114 -122 -114 -19 0 -17 7 18 63 45 74 51 94 33
112 -19 19 -51 19 -84 0 -32 -18 -40 -18 -40 -2 0 8 -8 21 -17 29 -42 35 -49
31 -123 -69 -80 -109 -90 -135 -65 -163 32 -35 58 -25 104 39 37 53 86 101
131 126 16 10 13 4 -37 -58 -29 -36 -29 -81 -2 -108 26 -26 57 -20 117 22 28
20 42 26 42 16 0 -16 37 -51 63 -61 22 -7 96 23 116 47 18 22 31 21 31 -1 0
-20 40 -47 60 -40 6 2 44 44 83 93 40 49 100 112 134 140 55 45 77 75 55 75
-5 0 -38 -20 -75 -45 -65 -43 -67 -44 -67 -21 0 17 -7 26 -26 30 -15 4 -27 6
-29 4 -1 -2 -17 -25 -35 -53 -78 -116 -123 -159 -189 -180 -21 -6 -23 -5 -18
15 3 12 29 59 58 105 48 76 56 85 96 94 49 13 57 31 13 31 l-30 0 20 33 c11
17 20 39 20 48 0 17 -30 49 -46 49 -6 0 -32 -30 -59 -67z"/>
<path d="M2115 855 c-48 -64 -60 -75 -85 -75 -34 0 -37 -6 -15 -30 14 -16 12
-22 -21 -71 -42 -64 -91 -109 -117 -109 -17 0 -15 7 16 64 l35 64 -22 21 c-12
12 -26 21 -30 21 -4 0 -19 9 -33 20 -35 27 -69 25 -129 -10 -85 -48 -136 -126
-119 -180 9 -29 62 -63 88 -56 12 3 34 17 49 31 32 30 38 31 38 6 0 -52 64
-50 135 4 l44 34 3 -27 c2 -17 14 -32 33 -44 38 -22 83 -11 134 31 l34 28 34
-33 c19 -19 43 -34 53 -34 11 0 38 16 60 36 40 36 40 36 40 11 0 -54 56 -59
121 -11 33 24 34 25 37 4 2 -11 16 -27 32 -35 28 -15 29 -14 66 33 52 65 135
151 159 164 17 10 16 6 -6 -23 -84 -110 -95 -142 -58 -175 21 -19 21 -18 52
16 18 20 44 51 59 70 l27 35 -6 -38 c-4 -28 -1 -43 12 -57 25 -28 55 -25 105
9 l42 28 35 -38 c42 -46 82 -51 148 -19 41 20 119 90 136 123 15 27 2 20 -37
-18 -42 -42 -101 -74 -146 -77 -27 -2 -33 1 -33 16 0 14 15 24 54 39 59 23
121 75 121 101 0 25 -55 76 -81 76 -60 0 -155 -75 -185 -145 -13 -31 -39 -54
-78 -68 -16 -7 -16 -4 4 30 57 94 55 90 41 107 -18 21 -47 20 -86 -4 l-32 -20
1 43 c1 39 -1 42 -27 45 -15 2 -41 -5 -58 -16 l-31 -19 -25 23 c-14 13 -33 24
-42 24 -9 -1 -42 -34 -75 -75 -66 -83 -112 -129 -139 -138 -15 -6 -17 -3 -12
16 4 12 19 43 35 69 l28 46 -21 20 c-12 11 -32 23 -44 26 -11 4 -27 13 -33 21
-41 49 -184 -36 -242 -142 -9 -17 -27 -38 -40 -46 -29 -18 -78 -30 -78 -19 0
15 107 186 122 194 7 4 31 15 53 25 l40 17 -32 4 c-33 3 -33 3 -18 32 8 16 15
38 15 48 0 18 -28 52 -43 52 -4 0 -32 -34 -62 -75z m1105 -138 c0 -23 -31 -57
-72 -78 -22 -11 -42 -18 -46 -15 -7 8 92 106 107 106 6 0 11 -6 11 -13z
m-1390 -2 c0 -28 -117 -155 -142 -155 -24 0 8 63 54 106 43 41 88 66 88 49z
m555 -25 c-22 -43 -73 -99 -106 -116 -72 -37 12 93 86 134 32 18 37 14 20 -18z"/>
<path d="M633 765 c-45 -19 -111 -91 -122 -132 -14 -51 8 -99 52 -118 65 -27
139 13 181 97 36 71 34 109 -5 142 -34 29 -59 32 -106 11z m109 -64 c-4 -40
-43 -92 -91 -123 -43 -27 -46 -28 -49 -9 -5 28 20 71 69 120 46 45 76 50 71
12z"/>
</g>
</svg>
